<svg xmlns="http://www.w3.org/2000/svg" viewBox="0 0 594.79 1265.11"><defs><style>.cls-1{fill:#f3f3f3}.cls-2{fill:#fff}</style></defs><g id="Layer_2" data-name="Layer 2"><g id="Layer_1-2" data-name="Layer 1"><rect class="cls-1" x="5.07" y="298.09" width="584.94" height="4.9" rx="2.22" ry="2.22"/><rect class="cls-1" x="-85.91" y="207.52" width="185.51" height="4.45" rx="2.23" ry="2.23" transform="rotate(-90 6.845 209.745)"/><rect class="cls-1" x="105.07" y="778.75" width="963.47" height="7" rx="3.1" ry="3.1" transform="rotate(-90 586.8 782.25)"/><circle class="cls-1" cx="7.39" cy="122.72" r="7.39" transform="rotate(-60 7.392 122.717)"/><path class="cls-2" d="M79.28 336.45q0 .6-2.72.68-3.36.08-4.08 1.13a2.93 2.93 0 0 0-.32 1.37v34q0 19-18.08 19-9.28 0-14.4-5.68-3.84-4.24-3.84-15v-30.82q0-2.56-.8-3.12t-5-.88c-.59-.05-.88-.27-.88-.64s.48-.72 1.44-.72h6.8q7 .08 10.4 0H53q1.36 0 1.36.8t-2.48.72q-3.52 0-3.76 1.28a9.37 9.37 0 0 0-.16 1.68v30q0 6.49.24 8.25.56 5.21 3 7.53a10.64 10.64 0 0 0 7.76 2.88q5.44 0 8-3.52Q70 381.13 70 370.17v-29.6q0-2.08-1.19-2.72a6.67 6.67 0 0 0-3.09-.48q-2.85-.08-2.85-1 0-.64 1.12-.64t3.52.12 3.52.12l1.36-.24h4.4q2.49.04 2.49.72zm25.6 54.16c0 .45-.35.68-1 .68a6.39 6.39 0 0 1-1-.08Q98 391 94.56 391q-3.6 0-10.56.24-2.32.08-3.44.08t-1.2-.72a.46.46 0 0 1 .44-.48q.44-.08 3.08-.16 2.48-.48 2.88-1.48t.4-6.44v-41.47q-.08-1.44-.08-1.36 0-2-4-2-2.24 0-2.24-.56c0-.37.11-.59.32-.64a14.43 14.43 0 0 1 2.08-.08h21c.69 0 1 .2 1 .6a.52.52 0 0 1-.36.57 15.33 15.33 0 0 1-2.44.19q-2.48.16-3 1l-.24 1.52V385q0 3.44.76 4.07t5.16.88q.76.05.76.66zM145 336.09l-30 55.12h-5.5l30.17-55.12zm54 .36q0 .6-2.72.68-3.36.08-4.08 1.13a2.93 2.93 0 0 0-.32 1.37v34q0 19-18.08 19-9.28 0-14.4-5.68-3.84-4.24-3.84-15v-30.82q0-2.56-.8-3.12t-5-.88c-.59-.05-.88-.27-.88-.64s.48-.72 1.44-.72H157q7 .08 10.4 0h5.2q1.36 0 1.36.8t-2.48.72q-3.52 0-3.76 1.28a9.37 9.37 0 0 0-.16 1.68v30q0 6.49.24 8.25.56 5.21 3 7.53a10.64 10.64 0 0 0 7.76 2.88q5.44 0 8-3.52 3.12-4.24 3.12-15.2v-29.6q0-2.08-1.19-2.72a6.67 6.67 0 0 0-3.09-.48q-2.85-.08-2.85-1 0-.64 1.12-.64t3.52.12 3.52.12l1.36-.24h4.4q2.53.02 2.53.7zm56.2 53.96q0 .8-2.24.8H227q-1.12 0-1.12-.76 0-.61.8-.72t5.52-.11q2.16 0 2.16-1.2t-3.12-6.48q-2.48-4.48-7.44-13.36-.32-.56-1-1.76-2.8 4.21-7.8 12.16t-5 9.06q0 1.27 1.52 1.35 1 .08 5 .16 1.28 0 1.28.71 0 1-2.08 1h-16q-1.6 0-1.6-.68t1.52-.68A11.69 11.69 0 0 0 206 388q2.2-1.63 4.92-6.5.88-1.51 2.8-4.54 5.75-8.93 7.75-12.28-1.19-2.4-5.48-10.34l-4.65-8.63a62.24 62.24 0 0 0-3.6-6.35 5.23 5.23 0 0 0-2.32-1.72q-.32-.08-4.81-.32-1.2 0-1.2-.64 0-.8 1.92-.8l1.36.08q1.12.08 2 .08l12.24.08q3 0 6.64-.16 1.52-.08 2.64-.08h.72q1.28 0 1.28.76a.72.72 0 0 1-.56.76 13.4 13.4 0 0 1-2.8.17q-3.92 0-3.92 1.84 0 1.2 4 8.64 1.28 2.4 4.32 7.76 10.48-14.5 10.48-16.89 0-1.51-3-1.51h-2q-1 0-1-.67a.71.71 0 0 1 .32-.63 3.62 3.62 0 0 1 1.6-.21q1.2 0 3.6.12t3.6.12q2.8 0 4.88-.16 1-.08 1.92-.08 1.52 0 1.52.8 0 .56-2.48.64-3.6.08-4.84 1t-4 5.56q-2.56 4.24-4.56 7.12l-4.88 7q5.84 10.48 14.48 27 1.68 3.28 3 4t5.56.6q1.75-.01 1.75.79zm66.08-27.2a29.08 29.08 0 0 1-4.16 15.79 24.88 24.88 0 0 1-12.56 10.16q-5.6 2.16-16.72 2.16h-19.52q-1.2 0-1.2-.64 0-.8 2.24-.72 3.44.08 4.16-1.2.32-.56.32-4.88v-40.75q0-3.52-.48-4.32-.8-1.44-4.08-1.36-1.76.08-1.76-.8 0-.72 1.12-.72h1.44q4.8 0 9.28.08 6.4.08 9.92.08 14.56 0 22.32 6 9.68 7.52 9.68 21.12zm-13.84 0q0-13.22-3.92-19.35t-12.32-6.13q-3 0-4 .64-1.28.8-1.28 3.76v41q0 5.29.64 5.85 1 .88 4.24.88 16.64.07 16.64-26.61zm50.4 18.24q0 1.76-2.08 4.64a13.81 13.81 0 0 1-11.68 6.16 18.13 18.13 0 0 1-13.28-5.12 17.61 17.61 0 0 1-5.2-13.13 18.13 18.13 0 0 1 5-13.08 16.72 16.72 0 0 1 12.56-5.24 16.2 16.2 0 0 1 8.72 2.24 11.44 11.44 0 0 1 5.2 7.12 25.74 25.74 0 0 1 .48 3.44q-1.84.21-14.8.32-2 0-5 .16-.24 2.87-.24 4.86 0 9.32 3.92 13.23a7.74 7.74 0 0 0 5.68 2.31 9 9 0 0 0 5.4-1.92 12.29 12.29 0 0 0 4-5q.64-1.52 1-1.52c.21.08.32.21.32.53zm-10.08-14q.08-6.11-.88-8.5a3.4 3.4 0 0 0-3.36-2.38q-4.88 0-5.6 10.88h9.84zm38.4 12.72a11.83 11.83 0 0 1-3.27 8.68 11.34 11.34 0 0 1-8.45 3.32 18.17 18.17 0 0 1-6.06-1.28 15 15 0 0 0-3.75-1 1.93 1.93 0 0 0-2 1.16q-.48 1.16-.72 1.16c-.32 0-.48-.19-.48-.56a14.22 14.22 0 0 1 .13-1.53 49.59 49.59 0 0 0 .19-5.32v-3.94c0-.59.13-.89.4-.89s.56.4.72 1.2a11.56 11.56 0 0 0 4.06 7.08 11.28 11.28 0 0 0 7.49 2.84 5.62 5.62 0 0 0 5.9-5.92 4.67 4.67 0 0 0-1.52-3.52q-1.12-1-6-2.64-6-2-8.68-4.84a10.12 10.12 0 0 1-2.68-7.24 11 11 0 0 1 3.2-8 10.53 10.53 0 0 1 7.84-3.28 28.64 28.64 0 0 1 6.08 1.12 4.27 4.27 0 0 0 1 .16q1.76 0 2.64-2.16c.11-.27.24-.4.4-.4q.56 0 .56 1l-.08 1.52a5.28 5.28 0 0 0-.08 1.12 58 58 0 0 0 .4 6.72v.4c0 .43-.16.64-.48.64s-.48-.24-.64-.72q-2.32-8.16-9.44-8.16a6.56 6.56 0 0 0-4.36 1.44 4.59 4.59 0 0 0-1.72 3.68 4 4 0 0 0 1.44 3.28 20.71 20.71 0 0 0 5.6 2.72q7.28 2.56 9.84 5.12a9.63 9.63 0 0 1 2.52 7.04zm24.24 10.56c0 .37-.24.56-.72.56h-20.17c-.64 0-1-.17-1-.51s.61-.41 1.84-.45q2.72-.08 3.2-.6t.48-3.18v-23.08q0-3.06-.52-3.66t-3.16-.6a12.22 12.22 0 0 1-2-.08c-.19-.05-.28-.24-.28-.56s.4-.56 1.2-.56a39.46 39.46 0 0 0 15-2.72q.16 1 .4 5.28v25.2q0 3.28.6 3.84t4.12.56c.71 0 1.01.18 1.01.56zM404.8 340a5.31 5.31 0 0 1-1.56 3.84 5.05 5.05 0 0 1-3.76 1.6 5.29 5.29 0 0 1-3.85-1.52 5.14 5.14 0 0 1-1.56-3.84 4.79 4.79 0 0 1 1.56-3.68 5.67 5.67 0 0 1 4-1.44 5.06 5.06 0 0 1 3.68 1.44 4.83 4.83 0 0 1 1.49 3.6z"/><path class="cls-2" d="M454.16 360.81q0 4.24-4.08 4.24-3.76 0-3.76-3.44a3.58 3.58 0 0 1 .28-1.28 3.37 3.37 0 0 0 .28-1q0-1.36-1.44-1.36a2.52 2.52 0 0 0-1.8.84 2.6 2.6 0 0 0-.84 1.88 5 5 0 0 0 .64 1.76 12.18 12.18 0 0 1 1.52 5.52q0 6-5.5 10a17.29 17.29 0 0 1-10.37 3 20.53 20.53 0 0 1-5.9-1 5.57 5.57 0 0 0-1.52-.26 3.83 3.83 0 0 0-2.59.93 2.94 2.94 0 0 0-1.08 2.31q0 2.92 4.55 2.92a79.6 79.6 0 0 0 10.21-1 22.5 22.5 0 0 1 3.19-.24q5.34 0 8.3 2.68a9.69 9.69 0 0 1 3 7.56 14.93 14.93 0 0 1-6 12.48q-6 4.64-16.28 4.64-7.2 0-11.4-2.52a7.75 7.75 0 0 1-4.2-6.93q0-6.65 9.76-8-5.84-2.32-5.84-7 0-6.41 7.52-8.73-7.36-3.76-7.36-10.58a11.14 11.14 0 0 1 4.68-9.05 17.86 17.86 0 0 1 11.4-3.68q7.76 0 12.08 4.32 3-3.92 7.2-3.92 5.35-.05 5.35 4.91zM443 399.53q0-5.92-7-5.92a57.54 57.54 0 0 0-8.8.88 40.16 40.16 0 0 1-5.84.64h-1.2a10.22 10.22 0 0 0-2.24 6.72q0 8.48 11 8.48a15.81 15.81 0 0 0 10-3.12 9.39 9.39 0 0 0 4.08-7.68zm-7.76-30.84q0-12.2-5.84-12.2t-5.84 11.08q0 6.66 1.44 9.55a5 5 0 0 0 4.8 2.89 4.3 4.3 0 0 0 4.28-2.45q1.2-2.45 1.2-8.87z"/><path class="cls-2" d="M493.76 390.73q0 .64-2 .64h-17.12q-1.12 0-1.12-.6t.94-.52h.63q2 0 2.4-.52a9.57 9.57 0 0 0 .35-3.58v-15.52q0-8.6-1.1-10.29a3.73 3.73 0 0 0-3.39-1.45 5.56 5.56 0 0 0-4 1.52 5.09 5.09 0 0 0-1.58 3.83v24.18a1.6 1.6 0 0 0 .68 1.24 7.74 7.74 0 0 0 2.6.36c.43 0 .64.16.64.48s-.19.51-.56.56-1.71.08-4 .08-4.19 0-5.68.08q-4.4.16-9 .16-1 0-1-.56t2.44-.64q2.44 0 2.84-1l.24-1.12v-18.32q0-7.74-.16-8.06-.24-1.2-2.16-1.2H452q-1.28 0-1.28-.52c0-.35.32-.55 1-.6q8.92-.4 14.25-3.76a2.5 2.5 0 0 1 .88-.32q.64 0 .64 1.28v4.56a13.13 13.13 0 0 1 10.88-5.52q6.88 0 9 4.8a13.83 13.83 0 0 1 1.08 4.48q.2 2.48.2 10.24v11.6q0 2.48.4 2.92t2.6.44q2.11.01 2.11.65zm34.08-9.28q0 1.76-2.08 4.64a13.81 13.81 0 0 1-11.68 6.16 18.13 18.13 0 0 1-13.28-5.12 17.61 17.61 0 0 1-5.2-13.13 18.13 18.13 0 0 1 5-13.08 16.72 16.72 0 0 1 12.56-5.24 16.2 16.2 0 0 1 8.72 2.24 11.44 11.44 0 0 1 5.2 7.12 25.74 25.74 0 0 1 .48 3.44q-1.84.21-14.8.32-2 0-5 .16-.24 2.87-.24 4.86 0 9.32 3.92 13.23a7.74 7.74 0 0 0 5.68 2.31 9 9 0 0 0 5.4-1.92 12.29 12.29 0 0 0 4-5q.64-1.52 1-1.52c.21.08.32.21.32.53zm-10.08-14q.08-6.11-.88-8.5a3.4 3.4 0 0 0-3.36-2.38q-4.88 0-5.6 10.88h9.84zm42.63-5.84a5.4 5.4 0 0 1-1.36 3.8 4.56 4.56 0 0 1-3.52 1.48q-4.32 0-4.32-4a4.47 4.47 0 0 1 1-2.72 1 1 0 0 0 .24-.56q0-.72-1-.72-2.69 0-4.1 4.23-.79 2.39-.79 11.73v12.85a2.07 2.07 0 0 0 2.16 2.31q1.28.08 3 .08.88.08.88.56 0 .64-.72.64H531c-.59 0-.88-.17-.88-.52s.37-.52 1.12-.52q3.28-.08 4-.68t.68-3.55l-.08-21.54a6.68 6.68 0 0 0-.76-3.75q-.76-1-3.4-1.28-2.08-.15-2.36-.23c-.19 0-.28-.22-.28-.52s.21-.45.64-.45h3a39.4 39.4 0 0 0 13.28-2.56 15.27 15.27 0 0 1 .4 3.68v3.36a14.15 14.15 0 0 1 3.32-5.46 6.83 6.83 0 0 1 4.68-1.58 6.09 6.09 0 0 1 4.44 1.68 5.68 5.68 0 0 1 1.59 4.24z"/><path class="cls-1" d="M136.63 8.39v20.48q-16.94-12.54-35.06-12.54-20 0-33.63 12.69T54.19 59.89q0 18 13.75 30.43t33.71 12.39q10.32 0 17.53-3a52.94 52.94 0 0 0 8.34-4 98.51 98.51 0 0 0 9.1-6.09v20.86a77.76 77.76 0 0 1-35.22 8.39q-27.76 0-47.39-17.14T34.48 60q0-21.89 16.35-39Q71 0 102.92 0a72.71 72.71 0 0 1 33.71 8.39zm57.6 38.66h55.86V2.23h19.54v114.59h-19.55V63.31h-55.85v53.51h-19.54V2.23h19.54zM354.31 68l40.09 48.84h-23.9l-37-46.91H330v46.91h-19.55V2.23h22.9q25.66 0 37.07 8.54Q383 20.26 383 35.85a30.22 30.22 0 0 1-7.88 20.93q-7.9 8.76-20.81 11.22zM330 54.85h6.21q27.79 0 27.79-18.78 0-17.59-27-17.59h-7zM443.19 2.23v114.59h-19.55V2.23zM557.31 19.3l-15.85 8.31Q537 20.78 533 18.7a21.81 21.81 0 0 0-10.82-2.37q-8.14 0-13.5 4.08T503.3 30.5q0 8.39 14.09 13.51l12.92 4.68q15.77 5.64 23.06 13.77t7.29 19.93a33.07 33.07 0 0 1-11.91 26.13q-12 10.39-29.77 10.39-16.86 0-27.84-8.83-10.82-8.83-13.5-24.86l19.79-3.86q1.34 10.09 4.7 14 6 7.42 17.61 7.42 9.14 0 15.18-5.42a17.64 17.64 0 0 0 6-13.73 17.28 17.28 0 0 0-1-6.12 15.22 15.22 0 0 0-3.27-5.12 25.55 25.55 0 0 0-5.74-4.38 58.3 58.3 0 0 0-8.39-3.9L510 59.45q-26.59-9.94-26.59-29.09 0-12.91 11.15-21.6T522.33 0q22.4 0 34.98 19.3zM55.66 189.07h41.63v-37.75h14.56v96.5H97.29v-45.06H55.66v45.06H41.1v-96.5h14.56zm74.5 10.06q0-20.37 14.94-35a49.16 49.16 0 0 1 35.75-14.62A50.47 50.47 0 0 1 231 199.7a47.45 47.45 0 0 1-14.84 35.3 49.78 49.78 0 0 1-36.06 14.56q-18.69 0-33.56-12.94-16.38-14.3-16.38-37.49zm14.69.19q0 16 10.75 26.31t24.69 10.31a34.73 34.73 0 0 0 25.63-10.5 35.54 35.54 0 0 0 10.44-25.87q0-15.44-10.31-25.87a36 36 0 0 0-50.81 0q-10.39 10.37-10.39 25.62zm119.06-48v82.81h28.38v13.69h-42.94v-96.5zm38.81 96.5L323 144.07l33.13 75 34.31-75 18.25 103.75h-14.9l-9.31-58.25-28.56 62.69-27.75-62.75-10.37 58.31zM482.41 165h-38.69v23.2h37.56v13.69h-37.56v32.25h38.69v13.69h-53.25v-96.5h53.25zm73.69.7l-11.81 7q-3.31-5.75-6.31-7.5a14.73 14.73 0 0 0-8.06-2 14.89 14.89 0 0 0-10.06 3.44 10.66 10.66 0 0 0-4 8.5q0 7.06 10.5 11.38l9.63 3.94q11.75 4.75 17.19 11.59t5.44 16.78q0 13.31-8.87 22t-22.19 8.75q-12.56 0-20.75-7.44t-10.09-20.94l14.75-3.25q1 8.5 3.5 11.75 4.5 6.25 13.13 6.25a15.23 15.23 0 0 0 11.31-4.56 15.78 15.78 0 0 0 4.5-11.56 16.23 16.23 0 0 0-.78-5.16 13.11 13.11 0 0 0-2.44-4.31 19.51 19.51 0 0 0-4.28-3.69 41.33 41.33 0 0 0-6.25-3.28l-9.31-3.87Q501 191.13 501 175a23.24 23.24 0 0 1 8.31-18.19q8.31-7.37 20.69-7.37 16.72.01 26.1 16.26z"/><circle class="cls-1" cx="587.39" cy="1257.72" r="7.39" transform="rotate(-60 587.396 1257.72)"/></g></g></svg>